inDegrees=no
num_controls=7
num_derivatives=13
num_iterations=88
num_multipliers=7
num_parameters=0
num_slacks=7
num_states=26
objective=0.470025
objective_accelerations=0.064577
objective_balance=0.002129
objective_effort=0.020522
objective_height=0.373333
objective_ligament=0.009464
solver_duration=1165.849443
status=Solve_Succeeded
success=true
DataType=double
version=3
OpenSimVersion=4.5
endheader
time	/jointset/ground_pelvis/pelvis_tilt/value	/jointset/ground_pelvis/pelvis_tx/value	/jointset/ground_pelvis/pelvis_ty/value	/jointset/hip_l/hip_flexion_l/value	/jointset/hip_l/hip_adduction_l/value	/jointset/hip_l/hip_rotation_l/value	/jointset/back/lumbar_extension/value	/jointset/patellofemoral_l/patellar_flexion_l/value	/jointset/knee_l/knee_flexion_l/value	/jointset/knee_l/knee_adduction_l/value	/jointset/knee_l/knee_rotation_l/value	/jointset/ankle_l/ankle_angle_l/value	/jointset/subtalar_l/subtalar_angle_l/value	/jointset/ground_pelvis/pelvis_tilt/speed	/jointset/ground_pelvis/pelvis_tx/speed	/jointset/ground_pelvis/pelvis_ty/speed	/jointset/hip_l/hip_flexion_l/speed	/jointset/hip_l/hip_adduction_l/speed	/jointset/hip_l/hip_rotation_l/speed	/jointset/back/lumbar_extension/speed	/jointset/patellofemoral_l/patellar_flexion_l/speed	/jointset/knee_l/knee_flexion_l/speed	/jointset/knee_l/knee_adduction_l/speed	/jointset/knee_l/knee_rotation_l/speed	/jointset/ankle_l/ankle_angle_l/speed	/jointset/subtalar_l/subtalar_angle_l/speed	/forceset/tau_hip_flexion_l	/forceset/tau_hip_adduction_l	/forceset/tau_hip_rotation_l	/forceset/tau_knee_flexion_l	/forceset/tau_ankle_angle_l	/forceset/tau_subtalar_angle_l	/forceset/tau_lumbar_extension	lambda_cid13_p0	lambda_cid13_p1	lambda_cid13_p2	lambda_cid13_p3	lambda_cid13_p4	lambda_cid13_p5	lambda_cid14_p0	/jointset/ground_pelvis/pelvis_tilt/accel	/jointset/ground_pelvis/pelvis_tx/accel	/jointset/ground_pelvis/pelvis_ty/accel	/jointset/hip_l/hip_flexion_l/accel	/jointset/hip_l/hip_adduction_l/accel	/jointset/hip_l/hip_rotation_l/accel	/jointset/back/lumbar_extension/accel	/jointset/patellofemoral_l/patellar_flexion_l/accel	/jointset/knee_l/knee_flexion_l/accel	/jointset/knee_l/knee_adduction_l/accel	/jointset/knee_l/knee_rotation_l/accel	/jointset/ankle_l/ankle_angle_l/accel	/jointset/subtalar_l/subtalar_angle_l/accel	gamma_cid13_p0	gamma_cid13_p1	gamma_cid13_p2	gamma_cid13_p3	gamma_cid13_p4	gamma_cid13_p5	gamma_cid14_p0
1.5	-0.5586484697896792	-0.04363070250694793	0.7887423615032721	1.214883619009312	-0.3471705175708008	-0.1145043478526376	-0.3408762485646359	0.5743053551162111	0.574305355116328	-0.05746100815656147	-0.1738662157989728	0.01405867655259938	0.07912446388680089	1.077712599673065	0.5016325087682264	0.4836372354556116	-2.84585366063881	0.002629603222284877	-0.5253419206410214	0.6073631385658926	-1.573479192606608	-1.573479192606609	-0.2044239552869226	0.009246535549930688	0.08558485459373512	0.03434759406851708	-0.2037627081254452	0.02979041309649026	0.007057944915415476	-0.06683206620847552	0.04120584559498522	-0.003452388307028962	0.1660910876797691	-11.38254470484299	1.049978694749653	2.341396590855782	-7.447406086925133	-430.1281912175153	-49.02840355852337	-19.896366189227	0.8731778638459249	0.8853294883886847	-0.6101982857068803	-1.818603150108201	0.2815809687561627	-0.1646053406156333	1.821726736338359	-0.6151142685091068	-0.6151142685091093	-0.3304376316266239	0.2775544604448377	0.2970260595414271	0.3812770687107416	-3.043843528615416e-08	1.550643481364291e-06	1.692997935452566e-07	3.121564880982845e-07	2.562870501991522e-07	-1.494604134387976e-07	2.305627119401533e-07
1.51	-0.5478285466135275	-0.0385706748846393	0.7935472234027729	1.186336802327787	-0.3471311370262584	-0.1197685849586836	-0.3347138035710038	0.5585417661375662	0.5585417661376861	-0.05952214204642196	-0.1737633112677769	0.01492922429793306	0.07948598142102346	1.086078893198474	0.5103019781971108	0.4772260828696582	-2.863085912431811	0.005261230032407699	-0.5275032107436591	0.6250105862489589	-1.57901872619021	-1.579018726190213	-0.2077346222653583	0.01130350648641784	0.08853232705447416	0.03797464332895768	-0.1963589535659125	0.02893985656036666	0.007363060024334355	-0.06572441012133987	0.03882804077647829	-0.004398021208585138	0.1605923544333238	-11.98458463856371	1.399691750928163	2.475697995704508	-6.9061560680143	-426.0286457003303	-48.77926841164877	-20.42342415721148	0.7894033430379658	0.8471627076352083	-0.6728681304392349	-1.61194749008329	0.2558760421511507	-0.2413588913959185	1.718962697031184	-0.4904416821665449	-0.4904416821666809	-0.3208326500727612	0.1650758586455438	0.2947987585374868	0.3559637970299067	-2.430417479313556e-08	1.602314433999117e-06	1.050349652760892e-07	3.129144338029694e-07	3.011449721060557e-07	-1.371123620363308e-07	2.444445815415197e-07
1.52	-0.5369307508528876	-0.03342607116054249	0.7982847148993354	1.157630380869083	-0.3470650557125957	-0.1250543285750388	-0.3283783423179985	0.54272936806727	0.5427293680674862	-0.06161427288978526	-0.1736407755375921	0.01582948495171458	0.07988427843631517	1.09328711656988	0.5185477291258647	0.4701631548678711	-2.877774616072295	0.007969757042966446	-0.5296432226986245	0.64196639044166	-1.583241010929038	-1.58324101092904	-0.21062334600861	0.01317277535870225	0.09152743628311512	0.04170349028217436	-0.1889551990065459	0.02808930002419677	0.007668175133717329	-0.06461675403419889	0.03645023595798304	-0.005343654110185689	0.155093621186695	-12.59029695889568	1.751985180062887	2.607375175520677	-6.345417186873854	-421.9761589609151	-48.56415742243958	-20.92869232905555	0.6415638330451036	0.8005857883629883	-0.7405533688736098	-1.309893519604716	0.2969610088433237	-0.1603497110811368	1.683398038265256	-0.3516644995540923	-0.3516644995540978	-0.2460489845898501	0.2400140476043077	0.3065534131222609	0.4016366072660709	3.124450362420622e-09	1.532003227816553e-06	-1.365670917618879e-07	2.906615468670634e-07	3.750309581487975e-07	-1.185154673393625e-07	2.665126034177891e-07
1.53	-0.5259661997174383	-0.02820128881600067	0.8029483373546961	1.128789627194946	-0.3469721205410342	-0.1303595339108962	-0.3218768973452083	0.5268817214505641	0.5268817214506857	-0.06373506754931201	-0.1734994276304676	0.0167598343804457	0.08031968737168463	1.09945600373629	0.5263194399828793	0.4624529618830779	-2.889926940355226	0.01061007024738062	-0.5313661385601487	0.6582129520263463	-1.586006579316638	-1.586006579316644	-0.2134974232156329	0.01505883192187229	0.09455766022182222	0.04537648827471205	-0.1822325223813514	0.02735204731581459	0.007974403690452015	-0.06244267692349117	0.0325150384033855	-0.006167363665916177	0.1500096834515028	-13.70162524292824	2.09284735047869	2.7945708053867	-5.358706918808603	-418.0571899560907	-48.29053261905111	-21.40932670640577	0.5795181493675805	0.7521125570755879	-0.8024012461376359	-1.100482800963059	0.2463570993807097	-0.1732457140936214	1.578837404490512	-0.1968057950074203	-0.1968057950079651	-0.3021705666129409	0.1569997241558949	0.3035696140568179	0.3497616880499159	5.317833797192275e-08	1.332085977890513e-06	-5.665899543667234e-07	2.439596502505297e-07	4.797592623358673e-07	-9.327917664198655e-08	2.972784120861431e-07
